<svg xmlns="http://www.w3.org/2000/svg" viewBox="0 0 128 128">
  <defs>
    <linearGradient id="g" x1="0" x2="1" y1="0" y2="1">
      <stop offset="0" stop-color="#55a6ff"/>
      <stop offset="1" stop-color="#1f6feb"/>
    </linearGradient>
  </defs>
  <circle cx="64" cy="64" r="58" fill="url(#g)"/>
  <path d="M29 47c7-16 21-28 38-33 2 8-2 14-9 17-7 3-9 8-5 15-9 4-16 5-24 1zm68 7c7 8 10 18 10 29-9 16-25 27-43 29-1-8 3-14 11-18 8-4 12-10 10-18 7-4 11-12 12-22zM25 64c5 4 11 6 18 6 5 9 12 14 22 16-1 10-6 18-15 24-18-5-32-18-39-35 3-5 8-9 14-11z" fill="#b9f3c2"/>
  <text x="64" y="80" text-anchor="middle" font-family="Arial, sans-serif" font-size="42" font-weight="700" fill="white">W</text>

  <!-- Home badge: same MEC icon, customized for Home -->
  <g transform="translate(72,73)">
    <circle cx="22" cy="22" r="25" fill="#ffffff" stroke="#0b376d" stroke-width="4"/>
    <path d="M3 21 L22 5 L41 21 V42 H3 Z" fill="#fff1d7" stroke="#0b376d" stroke-width="3" stroke-linejoin="round"/>
    <path d="M0 22 L22 2 L44 22 L38 27 L22 13 L6 27 Z" fill="#f05a36" stroke="#0b376d" stroke-width="3" stroke-linejoin="round"/>
    <rect x="17" y="27" width="10" height="15" rx="1.5" fill="#8b4a2f" stroke="#0b376d" stroke-width="2"/>
    <rect x="31" y="25" width="7" height="8" rx="1" fill="#ffd94a" stroke="#0b376d" stroke-width="1.6"/>
  </g>
</svg>