<svg xmlns="http://www.w3.org/2000/svg" width="360" height="220" viewBox="0 0 360 220">
<rect width="100%" height="100%" fill="none"/><defs><filter id="s"><feDropShadow dx="0" dy="5" stdDeviation="6" flood-opacity=".18"/></filter></defs>
<g transform="rotate(-3 180 110)" filter="url(#s)">
<path d="M38 119 C70 78,112 96,145 80 C190 59,233 91,318 73 C301 104,316 121,296 140 C249 148,208 134,165 151 C121 169,84 146,45 153 C56 138,50 127,38 119Z" fill="#2e7d32" stroke="none" stroke-width="3"/>
<path d="M61 111 C105 99,143 105,186 91 C230 76,263 91,299 86" fill="none" stroke="#1b5e20" stroke-width="10" stroke-linecap="round" opacity=".45"/>
<path d="M75 145 C112 132,150 142,194 126 C231 113,264 124,287 115" fill="none" stroke="white" stroke-width="5" stroke-linecap="round" opacity=".22"/>
</g></svg>